<svg xmlns="http://www.w3.org/2000/svg" version="1.1" xmlns:xlink="http://www.w3.org/1999/xlink" xmlns:svgjs="http://svgjs.dev/svgjs" width="2000" height="1500" viewBox="0 0 2000 1500"><rect width="2000" height="1500" fill="#ffffff"></rect><g transform="matrix(0.75,0,0,0.75,249.090909090909,282.7536437246963)"><svg viewBox="0 0 396 247" data-background-color="#ffffff" preserveAspectRatio="xMidYMid meet" height="1247" width="2000" xmlns="http://www.w3.org/2000/svg" xmlns:xlink="http://www.w3.org/1999/xlink"><g id="tight-bounds" transform="matrix(1,0,0,1,0.2400000000000091,-0.09999999999999432)"><svg viewBox="0 0 395.52 247.2" height="247.2" width="395.52"><g><svg></svg></g><g><svg viewBox="0 0 395.52 247.2" height="247.2" width="395.52"><g transform="matrix(1,0,0,1,136.742854353562,47.215199999999996)"><svg viewBox="0 0 122.03429129287599 152.7696" height="152.7696" width="122.03429129287599"><g><svg viewBox="0 0 122.03429129287599 152.7696" height="152.7696" width="122.03429129287599"><g><svg viewBox="0 0 122.03429129287599 152.7696" height="152.7696" width="122.03429129287599"><g><svg viewBox="0 0 122.03429129287599 152.7696" height="152.7696" width="122.03429129287599"><g id="textblocktransform"><svg viewBox="0 0 122.03429129287599 152.7696" height="152.7696" width="122.03429129287599" id="textblock"><g><svg viewBox="0 0 122.03429129287599 152.7696" height="152.7696" width="122.03429129287599"><g transform="matrix(1,0,0,1,0,0)"><svg width="122.03429129287599" viewBox="3.49 -37.01 29.57 37.01" height="152.7696" data-palette-color="#ff851b"><path d="M3.49-32.79L3.49-37.01 18.9-37.01Q21.36-37.01 23.45-36.36 25.54-35.72 27.06-34.46 28.59-33.2 29.44-31.32 30.3-29.44 30.3-27L30.3-27Q30.3-25.61 29.8-24.26 29.3-22.9 28.41-21.74 27.51-20.58 26.29-19.68 25.07-18.77 23.63-18.29L23.63-18.29Q24.24-18.02 24.87-17.52 25.49-17.02 26.04-16.3 26.59-15.58 27.04-14.66 27.49-13.75 27.76-12.7L27.76-12.7 29.81-4.64 33.01-4.64 33.06 0 25.85 0 23.1-11.25Q22.34-14.28 20.79-15.71 19.24-17.14 16.55-17.14L16.55-17.14 11.79-17.14 11.79-4.2 15.5-4.2 15.5 0 3.49 0 3.49-4.2 7.01-4.2 7.01-32.79 3.49-32.79ZM18.31-32.79L11.79-32.79 11.79-21.14 18.9-21.14Q20.29-21.14 21.45-21.51 22.61-21.88 23.45-22.61 24.29-23.34 24.77-24.43 25.24-25.51 25.24-26.95L25.24-26.95Q25.24-29.71 23.58-31.25 21.92-32.79 18.31-32.79L18.31-32.79Z" opacity="1" transform="matrix(1,0,0,1,0,0)" fill="#ff851b" class="wordmark-text-0" data-fill-palette-color="primary" id="text-0"></path></svg></g></svg></g></svg></g></svg></g></svg></g></svg></g></svg></g><g><path d="M0 123.6c0-68.262 55.338-123.6 123.6-123.6 30.402 0 58.24 10.976 79.768 29.183l-11.147 0c-19.26-14.022-42.974-22.294-68.621-22.295-64.458 0-116.712 52.254-116.712 116.712 0 64.458 52.254 116.712 116.712 116.712 25.647 0 49.361-8.272 68.621-22.295h11.147c-21.528 18.206-49.366 29.183-79.768 29.183-68.262 0-123.6-55.338-123.6-123.6z" fill="#ff851b" stroke="transparent" data-fill-palette-color="tertiary"></path></g></svg></g><defs></defs></svg><rect width="395.52" height="247.2" fill="none" stroke="none" visibility="hidden"></rect></g></svg></g></svg>